<?xml version="1.0" standalone="no"?>
<!DOCTYPE svg PUBLIC "-//W3C//DTD SVG 20010904//EN"
 "http://www.w3.org/TR/2001/REC-SVG-20010904/DTD/svg10.dtd">
<svg version="1.0" xmlns="http://www.w3.org/2000/svg"
 width="602.000000pt" height="480.000000pt" viewBox="0 0 602.000000 480.000000"
 preserveAspectRatio="xMidYMid meet">

<g transform="translate(0.000000,480.000000) scale(0.100000,-0.100000)"
fill="#000000" stroke="none">
<path d="M1131 4785 c-190 -42 -347 -180 -424 -373 l-31 -77 -7 -320 c-4 -182
-15 -380 -24 -460 -69 -589 -261 -920 -574 -991 l-71 -16 0 -148 0 -148 71
-16 c314 -71 505 -401 575 -997 8 -74 19 -278 23 -454 l7 -320 31 -77 c77
-196 234 -332 429 -373 104 -22 3644 -22 3748 0 220 47 394 216 450 440 12 44
17 137 20 355 3 168 11 351 20 425 60 512 207 827 445 954 50 26 80 36 174 56
l27 5 0 150 0 150 -27 5 c-94 20 -124 30 -174 56 -238 127 -385 442 -445 954
-8 73 -17 259 -20 425 -3 217 -9 311 -20 355 -56 224 -230 393 -450 440 -100
21 -3655 21 -3753 0z m2294 -1138 c140 -44 219 -90 310 -182 91 -90 125 -151
157 -278 73 -291 -94 -595 -377 -689 l-70 -23 47 -6 c199 -29 401 -171 481
-339 49 -104 71 -220 63 -335 -25 -361 -261 -594 -670 -660 -73 -12 -211 -15
-688 -15 l-598 0 0 1280 0 1281 628 -3 627 -3 90 -28z"/>
<path d="M2508 3344 c-5 -4 -8 -173 -8 -376 l0 -370 313 4 c336 5 372 9 481
64 68 34 140 106 168 168 32 72 33 229 1 297 -44 97 -131 165 -253 197 -61 16
-689 30 -702 16z"/>
<path d="M2500 1871 l0 -411 348 0 c382 0 435 6 549 59 129 61 199 168 210
321 9 131 -29 234 -115 312 -51 47 -100 71 -193 99 -69 21 -99 23 -436 27
l-363 4 0 -411z"/>
</g>
</svg>
